0
SECTION
2
HEADER
9
$INSUNITS
70
4
0
ENDSEC
0
SECTION
2
TABLES
0
TABLE
2
LTYPE
0
LTYPE
72
65
70
64
2
CONTINUOUS
3
______
73
0
40
0
0
ENDTAB
0
TABLE
2
LAYER
0
ENDTAB
0
ENDSEC
0
SECTION
2
ENTITIES
0
LINE
8
0
10
-7
20
-13
11
7
21
-13
0
LINE
8
0
10
7
20
-13
11
7
21
1
0
LINE
8
0
10
7
20
1
11
-7
21
1
0
LINE
8
0
10
-7
20
1
11
-7
21
-13
0
LINE
8
0
10
-7
20
6
11
7
21
6
0
LINE
8
0
10
7
20
6
11
7
21
20
0
LINE
8
0
10
7
20
20
11
-7
21
20
0
LINE
8
0
10
-7
20
20
11
-7
21
6
0
LINE
8
0
10
12
20
-10
11
26
21
-10
0
LINE
8
0
10
26
20
-10
11
26
21
4
0
LINE
8
0
10
26
20
4
11
12
21
4
0
LINE
8
0
10
12
20
4
11
12
21
-10
0
LINE
8
0
10
12
20
9
11
26
21
9
0
LINE
8
0
10
26
20
9
11
26
21
23
0
LINE
8
0
10
26
20
23
11
12
21
23
0
LINE
8
0
10
12
20
23
11
12
21
9
0
LINE
8
0
10
31
20
-14
11
45
21
-14
0
LINE
8
0
10
45
20
-14
11
45
21
0
0
LINE
8
0
10
45
20
0
11
31
21
0
0
LINE
8
0
10
31
20
0
11
31
21
-14
0
LINE
8
0
10
31
20
5
11
45
21
5
0
LINE
8
0
10
45
20
5
11
45
21
19
0
LINE
8
0
10
45
20
19
11
31
21
19
0
LINE
8
0
10
31
20
19
11
31
21
5
0
LINE
8
0
10
49.5287563
20
-23.494653
11
63.494653
21
-24.4712437
0
LINE
8
0
10
63.494653
20
-24.4712437
11
64.4712437
21
-10.505347
0
LINE
8
0
10
64.4712437
20
-10.505347
11
50.505347
21
-9.5287563
0
LINE
8
0
10
50.505347
20
-9.5287563
11
49.5287563
21
-23.494653
0
LINE
8
0
10
-31.1837073
20
-56.3719893
11
-18.0280107
21
-51.5837073
0
LINE
8
0
10
-18.0280107
20
-51.5837073
11
-22.8162927
21
-38.4280107
0
LINE
8
0
10
-22.8162927
20
-38.4280107
11
-35.9719893
21
-43.2162927
0
LINE
8
0
10
-35.9719893
20
-43.2162927
11
-31.1837073
21
-56.3719893
0
LINE
8
0
10
-13.3295475
20
-49.8736066
11
-0.1738509
21
-45.0853246
0
LINE
8
0
10
-0.1738509
20
-45.0853246
11
-4.9621329
21
-31.929628
0
LINE
8
0
10
-4.9621329
20
-31.929628
11
-18.1178295
21
-36.71791
0
LINE
8
0
10
-18.1178295
20
-36.71791
11
-13.3295475
21
-49.8736066
0
ENDSEC
0
EOF