0
SECTION
2
HEADER
9
$INSUNITS
70
4
0
ENDSEC
0
SECTION
2
TABLES
0
TABLE
2
LTYPE
0
LTYPE
72
65
70
64
2
CONTINUOUS
3
______
73
0
40
0
0
ENDTAB
0
TABLE
2
LAYER
0
ENDTAB
0
ENDSEC
0
SECTION
2
ENTITIES
0
LINE
8
0
10
23.1846404
20
-104.6013665
11
18.7933981
21
-88.2130272
0
LINE
8
0
10
18.6571016
20
-87.1786204
11
18.6508694
21
-58.5008692
0
LINE
8
0
10
22.6508693
20
-54.5
11
35
21
-54.5
0
LINE
8
0
10
39
20
-50.5
11
39
21
-37.6098376
0
LINE
8
0
10
40.7412645
20
-34.3086085
11
57.2558023
21
-23.0091879
0
LINE
8
0
10
58.8906874
20
-22.3593651
11
76.6899953
21
-19.5489481
0
LINE
8
0
10
77.3138457
20
-19.5
11
98.5835124
21
-19.5
0
LINE
8
0
10
99.4075544
20
-19.5858009
11
116.4607323
21
-23.1759436
0
LINE
8
0
10
118.9062092
20
-24.7857455
11
138.2109905
21
-52.1757088
0
LINE
8
0
10
138.9317279
20
-54.759132
11
136.4687702
21
-89.9810683
0
LINE
8
0
10
133.0000237
20
-93.6679001
11
27.5698534
21
-107.5319483
0
ARC
8
0
10
22.6571015
20
-87.1777512
40
4
50
180.0124504
51
194.9999979
0
ARC
8
0
10
22.6508693
20
-58.5
40
4
50
90
51
180.0124504
0
ARC
8
0
10
35
20
-50.5
40
4
50
270
51
0
0
ARC
8
0
10
43
20
-37.6098376
40
4
50
124.3803427
51
180
0
ARC
8
0
10
59.5145378
20
-26.310417
40
4
50
98.9726278
51
124.3803427
0
ARC
8
0
10
77.3138457
20
-23.5
40
4
50
90
51
98.9726278
0
ARC
8
0
10
98.5835124
20
-23.5
40
4
50
78.1113411
51
90
0
ARC
8
0
10
115.6366903
20
-27.0901427
40
4
50
35.1766537
51
78.1113411
0
ARC
8
0
10
134.9414717
20
-54.480106
40
4
50
355.9999987
51
35.1766537
0
ARC
8
0
10
132.478514
20
-89.7020424
40
4
50
277.4914016
51
355.9999987
0
ARC
8
0
10
27.0483438
20
-103.5660905
40
4
50
194.9999979
51
277.4914016
0
LINE
8
0
10
41.25
20
-73.25
11
58.75
21
-73.25
0
LINE
8
0
10
58.75
20
-73.25
11
58.75
21
-56.75
0
LINE
8
0
10
58.75
20
-56.75
11
41.25
21
-56.75
0
LINE
8
0
10
41.25
20
-56.75
11
41.25
21
-73.25
0
LINE
8
0
10
41.25
20
-54.25
11
58.75
21
-54.25
0
LINE
8
0
10
58.75
20
-54.25
11
58.75
21
-37.75
0
LINE
8
0
10
58.75
20
-37.75
11
41.25
21
-37.75
0
LINE
8
0
10
41.25
20
-37.75
11
41.25
21
-54.25
0
LINE
8
0
10
60.25
20
-79.25
11
77.75
21
-79.25
0
LINE
8
0
10
77.75
20
-79.25
11
77.75
21
-62.75
0
LINE
8
0
10
77.75
20
-62.75
11
60.25
21
-62.75
0
LINE
8
0
10
60.25
20
-62.75
11
60.25
21
-79.25
0
LINE
8
0
10
60.25
20
-60.25
11
77.75
21
-60.25
0
LINE
8
0
10
77.75
20
-60.25
11
77.75
21
-43.75
0
LINE
8
0
10
77.75
20
-43.75
11
60.25
21
-43.75
0
LINE
8
0
10
60.25
20
-43.75
11
60.25
21
-60.25
0
LINE
8
0
10
60.25
20
-41.25
11
77.75
21
-41.25
0
LINE
8
0
10
77.75
20
-41.25
11
77.75
21
-24.75
0
LINE
8
0
10
77.75
20
-24.75
11
60.25
21
-24.75
0
LINE
8
0
10
60.25
20
-24.75
11
60.25
21
-41.25
0
LINE
8
0
10
79.25
20
-76.25
11
96.75
21
-76.25
0
LINE
8
0
10
96.75
20
-76.25
11
96.75
21
-59.75
0
LINE
8
0
10
96.75
20
-59.75
11
79.25
21
-59.75
0
LINE
8
0
10
79.25
20
-59.75
11
79.25
21
-76.25
0
LINE
8
0
10
79.25
20
-57.25
11
96.75
21
-57.25
0
LINE
8
0
10
96.75
20
-57.25
11
96.75
21
-40.75
0
LINE
8
0
10
96.75
20
-40.75
11
79.25
21
-40.75
0
LINE
8
0
10
79.25
20
-40.75
11
79.25
21
-57.25
0
LINE
8
0
10
79.25
20
-38.25
11
96.75
21
-38.25
0
LINE
8
0
10
96.75
20
-38.25
11
96.75
21
-21.75
0
LINE
8
0
10
96.75
20
-21.75
11
79.25
21
-21.75
0
LINE
8
0
10
79.25
20
-21.75
11
79.25
21
-38.25
0
LINE
8
0
10
98.25
20
-80.25
11
115.75
21
-80.25
0
LINE
8
0
10
115.75
20
-80.25
11
115.75
21
-63.75
0
LINE
8
0
10
115.75
20
-63.75
11
98.25
21
-63.75
0
LINE
8
0
10
98.25
20
-63.75
11
98.25
21
-80.25
0
LINE
8
0
10
98.25
20
-61.25
11
115.75
21
-61.25
0
LINE
8
0
10
115.75
20
-61.25
11
115.75
21
-44.75
0
LINE
8
0
10
115.75
20
-44.75
11
98.25
21
-44.75
0
LINE
8
0
10
98.25
20
-44.75
11
98.25
21
-61.25
0
LINE
8
0
10
98.25
20
-42.25
11
115.75
21
-42.25
0
LINE
8
0
10
115.75
20
-42.25
11
115.75
21
-25.75
0
LINE
8
0
10
115.75
20
-25.75
11
98.25
21
-25.75
0
LINE
8
0
10
98.25
20
-25.75
11
98.25
21
-42.25
0
LINE
8
0
10
116.6958237
20
-89.6195343
11
134.1531945
21
-90.8402726
0
LINE
8
0
10
134.1531945
20
-90.8402726
11
135.3041763
21
-74.3804657
0
LINE
8
0
10
135.3041763
20
-74.3804657
11
117.8468055
21
-73.1597274
0
LINE
8
0
10
117.8468055
20
-73.1597274
11
116.6958237
21
-89.6195343
0
LINE
8
0
10
118.0211967
20
-70.6658173
11
135.4785675
21
-71.8865556
0
LINE
8
0
10
135.4785675
20
-71.8865556
11
136.6295493
21
-55.4267487
0
LINE
8
0
10
136.6295493
20
-55.4267487
11
119.1721785
21
-54.2060104
0
LINE
8
0
10
119.1721785
20
-54.2060104
11
118.0211967
21
-70.6658173
0
LINE
8
0
10
25.6834061
20
-105.2335547
11
42.5871081
21
-100.7042214
0
LINE
8
0
10
42.5871081
20
-100.7042214
11
38.3165939
21
-84.7664453
0
LINE
8
0
10
38.3165939
20
-84.7664453
11
21.4128919
21
-89.2957786
0
LINE
8
0
10
21.4128919
20
-89.2957786
11
25.6834061
21
-105.2335547
0
LINE
8
0
10
44.0359968
20
-100.3159928
11
60.9396988
21
-95.7866595
0
LINE
8
0
10
60.9396988
20
-95.7866595
11
56.6691846
21
-79.8488834
0
LINE
8
0
10
56.6691846
20
-79.8488834
11
39.7654826
21
-84.3782167
0
LINE
8
0
10
39.7654826
20
-84.3782167
11
44.0359968
21
-100.3159928
0
ENDSEC
0
EOF