0
SECTION
2
HEADER
9
$INSUNITS
70
4
0
ENDSEC
0
SECTION
2
TABLES
0
TABLE
2
LTYPE
0
LTYPE
72
65
70
64
2
CONTINUOUS
3
______
73
0
40
0
0
ENDTAB
0
TABLE
2
LAYER
0
ENDTAB
0
ENDSEC
0
SECTION
2
ENTITIES
0
LINE
8
0
10
-35.1280005
20
-66.0017635
11
-45.1833927
21
-38.3748005
0
ARC
8
0
10
-42.3643149
20
-37.3487401
40
3
50
109.9999981
51
200
0
LINE
8
0
10
-43.3903753
20
-34.5296623
11
-32.5369256
21
-30.5793296
0
ARC
8
0
10
-31.8528853
20
-32.4587148
40
2
50
109.958211
51
110.0000003
0
LINE
8
0
10
-32.5348693
20
-30.5785819
11
-15.3173306
21
-24.3261278
0
LINE
8
0
10
-14
20
-22.4462442
11
-14
21
26.5
0
ARC
8
0
10
-11
20
26.5
40
3
50
90
51
180
0
LINE
8
0
10
-11
20
29.5
11
48
21
29.5
0
LINE
8
0
10
67.5
20
29.5
11
68.7
21
29.5
0
ARC
8
0
10
68.7
20
26.5
40
3
50
0
51
90
0
LINE
8
0
10
71.7
20
26.5
11
71.7
21
2.75
0
LINE
8
0
10
71.7
20
-5.75
11
71.7
21
-28.2
0
ARC
8
0
10
68.7
20
-28.2
40
3
50
290.005742
51
360
0
LINE
8
0
10
69.7263429
20
-31.018975
11
-31.2825798
21
-67.7946781
0
ARC
8
0
10
-32.3089227
20
-64.9757031
40
3
50
200
51
290.005742
0
ARC
8
0
10
-16
20
-22.4462442
40
2
50
289.9582124
51
0
0
LINE
8
0
10
-7
20
-13
11
7
21
-13
0
LINE
8
0
10
7
20
-13
11
7
21
1
0
LINE
8
0
10
7
20
1
11
-7
21
1
0
LINE
8
0
10
-7
20
1
11
-7
21
-13
0
LINE
8
0
10
-7
20
6
11
7
21
6
0
LINE
8
0
10
7
20
6
11
7
21
20
0
LINE
8
0
10
7
20
20
11
-7
21
20
0
LINE
8
0
10
-7
20
20
11
-7
21
6
0
LINE
8
0
10
12
20
-10
11
26
21
-10
0
LINE
8
0
10
26
20
-10
11
26
21
4
0
LINE
8
0
10
26
20
4
11
12
21
4
0
LINE
8
0
10
12
20
4
11
12
21
-10
0
LINE
8
0
10
12
20
9
11
26
21
9
0
LINE
8
0
10
26
20
9
11
26
21
23
0
LINE
8
0
10
26
20
23
11
12
21
23
0
LINE
8
0
10
12
20
23
11
12
21
9
0
LINE
8
0
10
31
20
-14
11
45
21
-14
0
LINE
8
0
10
45
20
-14
11
45
21
0
0
LINE
8
0
10
45
20
0
11
31
21
0
0
LINE
8
0
10
31
20
0
11
31
21
-14
0
LINE
8
0
10
31
20
5
11
45
21
5
0
LINE
8
0
10
45
20
5
11
45
21
19
0
LINE
8
0
10
45
20
19
11
31
21
19
0
LINE
8
0
10
31
20
19
11
31
21
5
0
LINE
8
0
10
49.5287563
20
-23.494653
11
63.494653
21
-24.4712437
0
LINE
8
0
10
63.494653
20
-24.4712437
11
64.4712437
21
-10.505347
0
LINE
8
0
10
64.4712437
20
-10.505347
11
50.505347
21
-9.5287563
0
LINE
8
0
10
50.505347
20
-9.5287563
11
49.5287563
21
-23.494653
0
LINE
8
0
10
-31.1837073
20
-56.3719893
11
-18.0280107
21
-51.5837073
0
LINE
8
0
10
-18.0280107
20
-51.5837073
11
-22.8162927
21
-38.4280107
0
LINE
8
0
10
-22.8162927
20
-38.4280107
11
-35.9719893
21
-43.2162927
0
LINE
8
0
10
-35.9719893
20
-43.2162927
11
-31.1837073
21
-56.3719893
0
LINE
8
0
10
-13.3295475
20
-49.8736066
11
-0.1738509
21
-45.0853246
0
LINE
8
0
10
-0.1738509
20
-45.0853246
11
-4.9621329
21
-31.929628
0
LINE
8
0
10
-4.9621329
20
-31.929628
11
-18.1178295
21
-36.71791
0
LINE
8
0
10
-18.1178295
20
-36.71791
11
-13.3295475
21
-49.8736066
0
LINE
8
0
10
48
20
2.5
11
65.8
21
2.5
0
LINE
8
0
10
67.5
20
2.75
11
67.5
21
29.5
0
LINE
8
0
10
48
20
29.5
11
48
21
2.5
0
LINE
8
0
10
65.8
20
-5.75
11
71.7
21
-5.75
0
LINE
8
0
10
71.7
20
2.75
11
67.5
21
2.75
0
LINE
8
0
10
65.8
20
2.5
11
65.8
21
-5.75
0
LINE
8
0
10
7
20
-39
11
39
21
-39
0
LINE
8
0
10
39
20
-39
11
39
21
-21
0
LINE
8
0
10
39
20
-21
11
7
21
-21
0
LINE
8
0
10
7
20
-21
11
7
21
-39
0
ENDSEC
0
EOF