0
SECTION
2
HEADER
9
$INSUNITS
70
4
0
ENDSEC
0
SECTION
2
TABLES
0
TABLE
2
LTYPE
0
LTYPE
72
65
70
64
2
CONTINUOUS
3
______
73
0
40
0
0
ENDTAB
0
TABLE
2
LAYER
0
ENDTAB
0
ENDSEC
0
SECTION
2
ENTITIES
0
LINE
8
0
10
17.6910773
20
-129.9757031
11
7.6356851
21
-102.3487401
0
LINE
8
0
10
7.6356851
20
-102.3487401
11
18.4891348
21
-98.3984074
0
LINE
8
0
10
18.4891348
20
-98.3984074
11
39
21
-90.95
0
LINE
8
0
10
39
20
-90.95
11
39
21
-38.5
0
LINE
8
0
10
39
20
-38.5
11
118.7
21
-38.5
0
LINE
8
0
10
118.7
20
-38.5
11
118.7
21
-93.2
0
LINE
8
0
10
118.7
20
-93.2
11
17.6910773
21
-129.9757031
0
LINE
8
0
10
41.25
20
-79.25
11
58.75
21
-79.25
0
LINE
8
0
10
58.75
20
-79.25
11
58.75
21
-62.75
0
LINE
8
0
10
58.75
20
-62.75
11
41.25
21
-62.75
0
LINE
8
0
10
41.25
20
-62.75
11
41.25
21
-79.25
0
LINE
8
0
10
41.25
20
-60.25
11
58.75
21
-60.25
0
LINE
8
0
10
58.75
20
-60.25
11
58.75
21
-43.75
0
LINE
8
0
10
58.75
20
-43.75
11
41.25
21
-43.75
0
LINE
8
0
10
41.25
20
-43.75
11
41.25
21
-60.25
0
LINE
8
0
10
60.25
20
-76.25
11
77.75
21
-76.25
0
LINE
8
0
10
77.75
20
-76.25
11
77.75
21
-59.75
0
LINE
8
0
10
77.75
20
-59.75
11
60.25
21
-59.75
0
LINE
8
0
10
60.25
20
-59.75
11
60.25
21
-76.25
0
LINE
8
0
10
60.25
20
-57.25
11
77.75
21
-57.25
0
LINE
8
0
10
77.75
20
-57.25
11
77.75
21
-40.75
0
LINE
8
0
10
77.75
20
-40.75
11
60.25
21
-40.75
0
LINE
8
0
10
60.25
20
-40.75
11
60.25
21
-57.25
0
LINE
8
0
10
79.25
20
-80.25
11
96.75
21
-80.25
0
LINE
8
0
10
96.75
20
-80.25
11
96.75
21
-63.75
0
LINE
8
0
10
96.75
20
-63.75
11
79.25
21
-63.75
0
LINE
8
0
10
79.25
20
-63.75
11
79.25
21
-80.25
0
LINE
8
0
10
79.25
20
-61.25
11
96.75
21
-61.25
0
LINE
8
0
10
96.75
20
-61.25
11
96.75
21
-44.75
0
LINE
8
0
10
96.75
20
-44.75
11
79.25
21
-44.75
0
LINE
8
0
10
79.25
20
-44.75
11
79.25
21
-61.25
0
LINE
8
0
10
97.6958237
20
-89.6195343
11
115.1531945
21
-90.8402726
0
LINE
8
0
10
115.1531945
20
-90.8402726
11
116.3041763
21
-74.3804657
0
LINE
8
0
10
116.3041763
20
-74.3804657
11
98.8468055
21
-73.1597274
0
LINE
8
0
10
98.8468055
20
-73.1597274
11
97.6958237
21
-89.6195343
0
LINE
8
0
10
19.0529414
20
-127.138834
11
35.4975622
21
-121.1534815
0
LINE
8
0
10
35.4975622
20
-121.1534815
11
26.9470586
21
-97.661166
0
LINE
8
0
10
26.9470586
20
-97.661166
11
10.5024378
21
-103.6465185
0
LINE
8
0
10
10.5024378
20
-103.6465185
11
19.0529414
21
-127.138834
0
LINE
8
0
10
36.9071012
20
-120.6404513
11
53.351722
21
-114.6550988
0
LINE
8
0
10
53.351722
20
-114.6550988
11
44.8012184
21
-91.1627833
0
LINE
8
0
10
44.8012184
20
-91.1627833
11
28.3565976
21
-97.1481358
0
LINE
8
0
10
28.3565976
20
-97.1481358
11
36.9071012
21
-120.6404513
0
ENDSEC
0
EOF